<svg height="128" width="128" viewBox="0 0 37 37"><path fill="#FFFFFF" d="M0,0 h37v37H0z" shape-rendering="crispEdges"></path><path fill="#000000" d="M0 0h7v1H0zM10 0h1v1H10zM12 0h3v1H12zM19 0h1v1H19zM22 0h5v1H22zM30,0 h7v1H30zM0 1h1v1H0zM6 1h1v1H6zM8 1h1v1H8zM10 1h1v1H10zM15 1h1v1H15zM17 1h1v1H17zM20 1h2v1H20zM27 1h2v1H27zM30 1h1v1H30zM36,1 h1v1H36zM0 2h1v1H0zM2 2h3v1H2zM6 2h1v1H6zM12 2h1v1H12zM16 2h1v1H16zM18 2h2v1H18zM21 2h4v1H21zM26 2h1v1H26zM30 2h1v1H30zM32 2h3v1H32zM36,2 h1v1H36zM0 3h1v1H0zM2 3h3v1H2zM6 3h1v1H6zM8 3h3v1H8zM12 3h2v1H12zM15 3h4v1H15zM20 3h1v1H20zM24 3h5v1H24zM30 3h1v1H30zM32 3h3v1H32zM36,3 h1v1H36zM0 4h1v1H0zM2 4h3v1H2zM6 4h1v1H6zM9 4h1v1H9zM14 4h1v1H14zM19 4h1v1H19zM22 4h2v1H22zM30 4h1v1H30zM32 4h3v1H32zM36,4 h1v1H36zM0 5h1v1H0zM6 5h1v1H6zM8 5h2v1H8zM11 5h2v1H11zM15 5h1v1H15zM20 5h1v1H20zM22 5h1v1H22zM24 5h2v1H24zM27 5h2v1H27zM30 5h1v1H30zM36,5 h1v1H36zM0 6h7v1H0zM8 6h1v1H8zM10 6h1v1H10zM12 6h1v1H12zM14 6h1v1H14zM16 6h1v1H16zM18 6h1v1H18zM20 6h1v1H20zM22 6h1v1H22zM24 6h1v1H24zM26 6h1v1H26zM28 6h1v1H28zM30,6 h7v1H30zM9 7h3v1H9zM14 7h3v1H14zM18 7h2v1H18zM21 7h2v1H21zM28 7h1v1H28zM0 8h5v1H0zM6 8h4v1H6zM11 8h1v1H11zM13 8h1v1H13zM15 8h4v1H15zM20 8h1v1H20zM22 8h1v1H22zM25 8h1v1H25zM27 8h3v1H27zM31 8h1v1H31zM33 8h1v1H33zM35 8h1v1H35zM0 9h1v1H0zM4 9h2v1H4zM8 9h3v1H8zM12 9h1v1H12zM14 9h1v1H14zM17 9h1v1H17zM19 9h1v1H19zM23 9h2v1H23zM26 9h1v1H26zM29 9h1v1H29zM34 9h1v1H34zM1 10h2v1H1zM4 10h1v1H4zM6 10h5v1H6zM13 10h1v1H13zM15 10h1v1H15zM18 10h1v1H18zM21 10h2v1H21zM26 10h2v1H26zM30 10h3v1H30zM34 10h1v1H34zM36,10 h1v1H36zM0 11h1v1H0zM3 11h2v1H3zM7 11h1v1H7zM10 11h1v1H10zM12 11h1v1H12zM14 11h2v1H14zM21 11h1v1H21zM23 11h2v1H23zM27 11h1v1H27zM30 11h1v1H30zM33 11h1v1H33zM6 12h1v1H6zM8 12h1v1H8zM10 12h1v1H10zM12 12h2v1H12zM16 12h5v1H16zM22 12h1v1H22zM24 12h2v1H24zM28 12h1v1H28zM30 12h5v1H30zM1 13h3v1H1zM8 13h2v1H8zM14 13h1v1H14zM17 13h1v1H17zM19 13h1v1H19zM21 13h1v1H21zM23 13h1v1H23zM26 13h1v1H26zM29 13h1v1H29zM34 13h2v1H34zM0 14h3v1H0zM4 14h3v1H4zM8 14h1v1H8zM10 14h4v1H10zM15 14h1v1H15zM18 14h1v1H18zM20 14h2v1H20zM27 14h1v1H27zM30 14h1v1H30zM32 14h1v1H32zM34 14h1v1H34zM36,14 h1v1H36zM4 15h1v1H4zM8 15h2v1H8zM11 15h1v1H11zM14 15h1v1H14zM16 15h1v1H16zM18 15h1v1H18zM21 15h4v1H21zM27 15h2v1H27zM30 15h1v1H30zM32 15h1v1H32zM36,15 h1v1H36zM0 16h1v1H0zM2 16h2v1H2zM6 16h3v1H6zM10 16h2v1H10zM13 16h1v1H13zM17 16h4v1H17zM22 16h1v1H22zM24 16h2v1H24zM27 16h2v1H27zM30 16h5v1H30zM36,16 h1v1H36zM1 17h2v1H1zM5 17h1v1H5zM7 17h1v1H7zM9 17h1v1H9zM12 17h1v1H12zM14 17h1v1H14zM19 17h1v1H19zM21 17h3v1H21zM26 17h1v1H26zM29 17h1v1H29zM34 17h2v1H34zM0 18h7v1H0zM9 18h2v1H9zM13 18h4v1H13zM20 18h3v1H20zM24 18h4v1H24zM30 18h1v1H30zM33 18h1v1H33zM35,18 h2v1H35zM0 19h1v1H0zM2 19h2v1H2zM5 19h1v1H5zM7 19h4v1H7zM12 19h1v1H12zM14 19h3v1H14zM21 19h1v1H21zM23 19h2v1H23zM28 19h1v1H28zM30 19h2v1H30zM36,19 h1v1H36zM5 20h4v1H5zM10 20h1v1H10zM12 20h2v1H12zM15 20h4v1H15zM20 20h1v1H20zM25 20h1v1H25zM27 20h2v1H27zM30,20 h7v1H30zM0 21h4v1H0zM5 21h1v1H5zM9 21h2v1H9zM14 21h1v1H14zM19 21h1v1H19zM22 21h3v1H22zM26 21h1v1H26zM31 21h1v1H31zM34 21h2v1H34zM1 22h3v1H1zM5 22h2v1H5zM8 22h8v1H8zM17 22h2v1H17zM21 22h2v1H21zM24 22h6v1H24zM31 22h2v1H31zM34,22 h3v1H34zM0 23h1v1H0zM2 23h4v1H2zM7 23h1v1H7zM10 23h2v1H10zM15 23h1v1H15zM18 23h1v1H18zM21 23h4v1H21zM26 23h1v1H26zM28 23h2v1H28zM36,23 h1v1H36zM3 24h1v1H3zM5 24h2v1H5zM8 24h1v1H8zM10 24h2v1H10zM13 24h1v1H13zM15 24h6v1H15zM24 24h2v1H24zM29,24 h8v1H29zM0 25h1v1H0zM8 25h1v1H8zM10 25h1v1H10zM12 25h3v1H12zM18 25h2v1H18zM21 25h3v1H21zM26 25h1v1H26zM29 25h1v1H29zM31 25h1v1H31zM33 25h1v1H33zM35 25h1v1H35zM0 26h1v1H0zM5 26h2v1H5zM10 26h1v1H10zM15 26h3v1H15zM24 26h4v1H24zM30 26h3v1H30zM34,26 h3v1H34zM0 27h1v1H0zM3 27h1v1H3zM7 27h1v1H7zM10 27h1v1H10zM12 27h1v1H12zM15 27h1v1H15zM18 27h4v1H18zM24 27h1v1H24zM29 27h4v1H29zM36,27 h1v1H36zM0 28h1v1H0zM2 28h2v1H2zM5 28h3v1H5zM12 28h2v1H12zM15 28h3v1H15zM20 28h1v1H20zM23 28h1v1H23zM25 28h1v1H25zM28 28h7v1H28zM8 29h2v1H8zM14 29h1v1H14zM17 29h3v1H17zM21 29h4v1H21zM26 29h1v1H26zM28 29h1v1H28zM32 29h2v1H32zM0 30h7v1H0zM8 30h1v1H8zM10 30h7v1H10zM20 30h2v1H20zM25 30h2v1H25zM28 30h1v1H28zM30 30h1v1H30zM32 30h1v1H32zM35,30 h2v1H35zM0 31h1v1H0zM6 31h1v1H6zM9 31h3v1H9zM15 31h2v1H15zM18 31h4v1H18zM24 31h1v1H24zM28 31h1v1H28zM32 31h1v1H32zM36,31 h1v1H36zM0 32h1v1H0zM2 32h3v1H2zM6 32h1v1H6zM8 32h2v1H8zM11 32h3v1H11zM16 32h2v1H16zM20 32h1v1H20zM24 32h11v1H24zM36,32 h1v1H36zM0 33h1v1H0zM2 33h3v1H2zM6 33h1v1H6zM8 33h1v1H8zM10 33h1v1H10zM12 33h1v1H12zM14 33h1v1H14zM17 33h3v1H17zM23 33h1v1H23zM29 33h2v1H29zM32 33h1v1H32zM34 33h1v1H34zM0 34h1v1H0zM2 34h3v1H2zM6 34h1v1H6zM8 34h2v1H8zM12 34h1v1H12zM14 34h2v1H14zM17 34h1v1H17zM20 34h1v1H20zM22 34h1v1H22zM24 34h1v1H24zM27 34h3v1H27zM31 34h1v1H31zM33 34h1v1H33zM35,34 h2v1H35zM0 35h1v1H0zM6 35h1v1H6zM8 35h1v1H8zM12 35h1v1H12zM16 35h1v1H16zM21 35h1v1H21zM23 35h1v1H23zM26 35h5v1H26zM36,35 h1v1H36zM0 36h7v1H0zM8 36h1v1H8zM10 36h2v1H10zM13 36h1v1H13zM17 36h1v1H17zM19 36h2v1H19zM25 36h1v1H25zM29 36h2v1H29zM32,36 h5v1H32z" shape-rendering="crispEdges"></path></svg>