<svg width="88" height="88" fill="none" xmlns="http://www.w3.org/2000/svg"><g clip-path="url(#prefix__clip0_16_3066)"><mask id="prefix__a" style="mask-type:luminance" maskUnits="userSpaceOnUse" x="0" y="0" width="88" height="88"><path d="M88 0H0v88h88V0z" fill="#fff"/></mask><g mask="url(#prefix__a)"><mask id="prefix__b" style="mask-type:luminance" maskUnits="userSpaceOnUse" x="0" y="0" width="88" height="88"><path d="M88 .167H.167V88H88V.167z" fill="#fff"/></mask><g mask="url(#prefix__b)"><mask id="prefix__c" style="mask-type:luminance" maskUnits="userSpaceOnUse" x="0" y="0" width="88" height="88"><path d="M88 .167H.167V88H88V.167z" fill="#fff"/></mask><g mask="url(#prefix__c)"><mask id="prefix__d" style="mask-type:luminance" maskUnits="userSpaceOnUse" x="0" y="0" width="88" height="88"><path d="M88 .167H.167V88H88V.167z" fill="#fff"/></mask><g fill="#fff" mask="url(#prefix__d)"><path d="M44.083 31.274c-7.074 0-12.809 5.735-12.809 12.81 0 7.073 5.735 12.808 12.81 12.808 7.073 0 12.808-5.735 12.808-12.809-.007-7.07-5.738-12.801-12.809-12.809zm0 23.788c-6.063 0-10.979-4.915-10.979-10.979 0-6.063 4.916-10.979 10.98-10.979 6.063 0 10.978 4.916 10.978 10.98-.006 6.06-4.918 10.972-10.979 10.978zM43.168 17.55h1.83v10.065h-1.83V17.55zM43.168 60.552h1.83v10.064h-1.83V60.552zM60.552 43.168h10.064v1.83H60.552v-1.83zM17.55 43.168h10.065v1.83H17.55v-1.83zM55.082 31.791l7.116-7.116 1.294 1.294-7.116 7.116-1.294-1.294zM24.675 62.198l7.116-7.117 1.294 1.294-7.116 7.117-1.294-1.294zM55.082 56.376l1.294-1.294 7.116 7.116-1.294 1.294-7.116-7.116zM24.675 25.969l1.294-1.294 7.116 7.117-1.294 1.294-7.116-7.117z"/></g></g></g></g></g><defs><clipPath id="prefix__clip0_16_3066"><path fill="#fff" d="M0 0h88v88H0z"/></clipPath></defs></svg>