<svg width="63" height="63" fill="none" xmlns="http://www.w3.org/2000/svg"><g clip-path="url(#prefix__clip0_16_2802)"><mask id="prefix__a" style="mask-type:luminance" maskUnits="userSpaceOnUse" x="0" y="0" width="63" height="63"><path d="M63 0H0v63h63V0z" fill="#fff"/></mask><g mask="url(#prefix__a)"><mask id="prefix__b" style="mask-type:luminance" maskUnits="userSpaceOnUse" x="0" y="0" width="63" height="63"><path d="M63 0H.12v63H63V0z" fill="#fff"/></mask><g mask="url(#prefix__b)"><mask id="prefix__c" style="mask-type:luminance" maskUnits="userSpaceOnUse" x="0" y="0" width="63" height="63"><path d="M63 0H.12v63H63V0z" fill="#fff"/></mask><g mask="url(#prefix__c)"><mask id="prefix__d" style="mask-type:luminance" maskUnits="userSpaceOnUse" x="0" y="0" width="63" height="63"><path d="M63 0H.12v63H63V0z" fill="#fff"/></mask><g mask="url(#prefix__d)"><path d="M36.8 8.4a25.495 25.495 0 00-7.73-1.838c7.86 6.826 10.874 18.179 6.682 28.416-4.192 10.238-14.41 16.078-24.76 15.356a25.397 25.397 0 006.747 4.2c12.707 5.25 27.248-.787 32.488-13.518 5.24-12.732-.72-27.3-13.427-32.616z" fill="#fff"/></g></g></g></g></g><defs><clipPath id="prefix__clip0_16_2802"><path fill="#fff" d="M0 0h63v63H0z"/></clipPath></defs></svg>