<svg width="72" height="72" fill="none" xmlns="http://www.w3.org/2000/svg"><g clip-path="url(#prefix__clip0_16_3040)"><mask id="prefix__a" style="mask-type:luminance" maskUnits="userSpaceOnUse" x="0" y="0" width="72" height="72"><path d="M72 0H0v72h72V0z" fill="#fff"/></mask><g mask="url(#prefix__a)"><mask id="prefix__b" style="mask-type:luminance" maskUnits="userSpaceOnUse" x="0" y="0" width="72" height="72"><path d="M71.766.234H.234v71.531h71.53V.235z" fill="#fff"/></mask><g mask="url(#prefix__b)"><mask id="prefix__c" style="mask-type:luminance" maskUnits="userSpaceOnUse" x="0" y="0" width="72" height="72"><path d="M71.766.234H.234v71.531h71.53V.235z" fill="#fff"/></mask><g mask="url(#prefix__c)"><mask id="prefix__d" style="mask-type:luminance" maskUnits="userSpaceOnUse" x="0" y="0" width="72" height="72"><path d="M71.766.234H.234v71.531h71.53V.235z" fill="#fff"/></mask><g fill="#fff" mask="url(#prefix__d)"><path d="M21.207 35.98c.003-.567.038-1.134.105-1.698h-8.888v3.353h8.882a14.756 14.756 0 01-.099-1.655zM26.812 24.416l-6.302-6.299-2.371 2.37 6.299 6.3a14.94 14.94 0 012.374-2.371zM35.984 21.204c.56.002 1.12.037 1.676.102V12.4h-3.353v8.907c.556-.065 1.116-.1 1.677-.102zM47.528 26.784l6.3-6.3-2.372-2.367-6.302 6.302c.878.696 1.675 1.49 2.374 2.365zM24.42 45.152l-6.281 6.28 2.37 2.37 6.278-6.276a14.9 14.9 0 01-2.367-2.374zM35.984 50.757c-.56-.002-1.12-.036-1.677-.102v8.862h3.353v-8.862c-.556.066-1.116.1-1.676.102zM50.654 34.282c.14 1.113.141 2.239.007 3.353h8.885v-3.353h-8.892zM45.18 47.526l6.276 6.276 2.372-2.37-6.279-6.28a14.894 14.894 0 01-2.37 2.374zM47.78 35.98c0 6.516-5.282 11.797-11.797 11.797-6.515 0-11.797-5.281-11.797-11.797 0-6.514 5.282-11.796 11.797-11.796 6.515 0 11.797 5.281 11.797 11.796z"/></g></g></g></g></g><defs><clipPath id="prefix__clip0_16_3040"><path fill="#fff" d="M0 0h72v72H0z"/></clipPath></defs></svg>