<svg width="44" height="44" fill="none" xmlns="http://www.w3.org/2000/svg"><g clip-path="url(#prefix__clip0_16_2820)"><mask id="prefix__a" style="mask-type:luminance" maskUnits="userSpaceOnUse" x="0" y="0" width="44" height="44"><path d="M44 0H0v44h44V0z" fill="#fff"/></mask><g mask="url(#prefix__a)"><mask id="prefix__b" style="mask-type:luminance" maskUnits="userSpaceOnUse" x="0" y="0" width="44" height="44"><path d="M43.917.083H0V44h43.917V.083z" fill="#fff"/></mask><g mask="url(#prefix__b)"><mask id="prefix__c" style="mask-type:luminance" maskUnits="userSpaceOnUse" x="0" y="0" width="44" height="44"><path d="M43.917.083H0V44h43.917V.083z" fill="#fff"/></mask><g mask="url(#prefix__c)"><mask id="prefix__d" style="mask-type:luminance" maskUnits="userSpaceOnUse" x="0" y="0" width="44" height="44"><path d="M43.917.083H0V44h43.917V.083z" fill="#fff"/></mask><g mask="url(#prefix__d)"><path d="M22.818 5.991c.835.202 1.653.466 2.447.792C33.68 10.264 37.68 19.907 34.2 28.322c-3.48 8.415-13.123 12.414-21.538 8.934-.8-.337-1.574-.736-2.313-1.193a18.201 18.201 0 0015.384-11.25 18.363 18.363 0 00-2.914-18.822zM20.22 4.658c7.259 6.307 8.03 17.304 1.724 24.563a17.412 17.412 0 01-14.35 5.95 17.74 17.74 0 004.712 2.928c8.9 3.626 19.057-.65 22.683-9.55 3.599-8.832-.58-18.914-9.37-22.61a17.833 17.833 0 00-5.399-1.28z" fill="#fff"/></g></g></g></g></g><defs><clipPath id="prefix__clip0_16_2820"><path fill="#fff" d="M0 0h44v44H0z"/></clipPath></defs></svg>